# xmcd CD database file
#
# Track frame offsets:
#	150
#	9574
#	21516
#	38016
#	49335
#	61628
#	75084
#	96709
#	111634
#	130630
#	144781
#	158484
#	171434
#	186084
#	205122
#	217009
#	236884
#	251547
#	265984
#	278147
#	288484
#	304084
#
# Disc length: 4245 seconds
#
# Revision: 7
# Processed by: cddbd v1.5.2PL0 Copyright (c) Steve Scherf et al.
# Submitted via: jetAudio 7
#
DISCID=3c109316
DTITLE=Romantic Collection - Volume 3
DYEAR=1900
DGENRE=Various
TTITLE0=Yesterday
TTITLE1=Only You
TTITLE2=Go Down Moses
TTITLE3=Stranger In The Night
TTITLE4=Moonlight Serenade
TTITLE5=Spanish Caravan
TTITLE6=Wonderful Life
TTITLE7=I'll Meet You At Midnight
TTITLE8=Still Got The Blues
TTITLE9=El Condor Pasa
TTITLE10=Theme from Love Story
TTITLE11=A Toi
TTITLE12=Army Dreams
TTITLE13=Mammy Blue
TTITLE14=Love Is Blue
TTITLE15=Do You Really Want To Hurt Me...
TTITLE16=Lady
TTITLE17=Girl You'll Be A Woman Soon
TTITLE18=Love Theme Godfather
TTITLE19=Love Some Town
TTITLE20=Your Favorite Toy
TTITLE21=Yesterday
EXTD=
EXTT0=
EXTT1=
EXTT2=
EXTT3=
EXTT4=
EXTT5=
EXTT6=
EXTT7=
EXTT8=
EXTT9=
EXTT10=
EXTT11=
EXTT12=
EXTT13=
EXTT14=
EXTT15=
EXTT16=
EXTT17=
EXTT18=
EXTT19=
EXTT20=
EXTT21=
PLAYORDER=
